<svg id="Layer_1" data-name="Layer 1" xmlns="http://www.w3.org/2000/svg" viewBox="0 0 499.66 450.95"><defs><style>.cls-1{fill:#fff}.cls-2{fill:#471c11}.cls-10,.cls-3{fill:#313640}.cls-4{fill:#eee}.cls-5,.cls-9{fill:none}.cls-10,.cls-5,.cls-8,.cls-9{stroke:#000;stroke-miterlimit:10}.cls-10,.cls-5,.cls-8{stroke-width:3px}.cls-6,.cls-8{fill:#e4b6ab}.cls-7{fill:#ccbfa7}.cls-9{stroke-width:2px}</style></defs><title>cow-butt2</title><path class="cls-1" d="M251.4 444.6l18-24.9a114.82 114.82 0 0 0 11.1-35.9c3-21.2-4.5-60.5-15.1-77.4s-26.8-41.1-53.4-43.7c-24.2-2.3-47.8-3.2-72.1 9.7-29.8 15.7-27 77.1-8.4 104.9s18.1 19.1 18.1 19.1l-15.4 8.4-15.4-11.5s-20.2-15.1-29-30.9-16-16.7-28.4-82.3S74.1 153 86.6 136.7s40-55.5 110.7-66c66.3-9.8 80.2 12.1 92.5 12.2s51.8 113.5 51.8 113.5l21.3 21a403.49 403.49 0 0 1-6.9 71.3c-4.1 22-14.3 46.3-26 76.3-17.4 44.7-51.6 84-51.6 84l-16-8" transform="translate(-39.54 -11.68)" id="Layer_18" data-name="Layer 18"/><path class="cls-2" d="M211.76 433.12l11-13.31 3.1 5.81 4.7 4.69 5.1 2.4 4.3 2-9.1 14h-5l-6.3-5-7.8-7.4v-3.19zm-115.2-61l13.4 12.5-13.8 10-17-13.11 9.7-3.7 7.7-5.69z" id="Layer_13" data-name="Layer 13"/><path class="cls-3" d="M261.4 72.9l-1.8 24.6 13 23.9 16.4 15.7s5.7.5 6.1 1.6c6 14.4 8.4 45.2 10.3 48.8 3 5.7 14.6 18.5 34.6 32.1 3.9 2.7 16 6.4 16 6.4l6-8v-21.5l-5.8-34-16.8-36.2-27-29-27.9-17.8" transform="translate(-39.54 -11.68)" id="Layer_14" data-name="Layer 14"/><path class="cls-4" d="M277 76.3s3.7-32.7 68-54.3c25-8.4 64.3-3.4 88.7 7.3 35.2 15.4 33.1 17.8 56.9 38.2 16.3 14 41.1 50.5 45.1 86.8 3.2 29 .3 58.7-17.3 81.7s-31.4 30.2-48.2 36.5c-10.2 3.9-50.4 7.5-63.3 6.1-8.1-.9-46.4-14-46.7-14.3S362 228 362 228l-.1-40-4.9-17.3-11.7-32.7-16-22.3L303 90.8" transform="translate(-39.54 -11.68)" id="Layer_15" data-name="Layer 15"/><path class="cls-1" d="M407.4 33.1s43.8 19.4 66.5 37.3c15.4 12.1 27.1 26.6 29.4 36.3 1.8 7.8.2 20.8.2 20.8s-29.8-41.2-45.1-55.9-40.9-29-46.8-31.8-18.7-8.8-18.7-8.8z" transform="translate(-39.54 -11.68)" id="Layer_21" data-name="Layer 21"/><path class="cls-1" d="M314.8 99.9l6.7-2.1s-4.2-3.5-5.5-5a19.28 19.28 0 0 1-2.2-10.5c.5-4.5 3.5-8.9 3.7-9.4.4-1 8.8-4.9 10-4.9s8.8 1.2 8.8 1.2l7.2 9.8.1 11.8-.7 2.5 9.1-7.1 13.3-1.3 3.2.4.9 9.1 5.8 12.4s6 9.1 10.5 13.5 17.3 7.2 17.3 7.2l18.1-4.2 15.7 12.9 17.3 21.7-63.3 54.1-19.4 9.6-10.1-11.4-1-27-5.4-23.7-10.7-21.5-14.5-22-14.9-16.1" transform="translate(-39.54 -11.68)" id="Layer_16" data-name="Layer 16"/><g id="butt"><path class="cls-5" d="M149.5 396a62 62 0 0 1-21.5-25c-8.5-17.7-27.5-80.5 21.5-104.5 0 0 71.1-22.1 103.5 20.5 36 47.3 40.3 114.7-1.6 157.6-2.6 2.6 14 18.1 18.6 16.4 16.6-26.5 104.5-123.8 91.5-266.5C352 90.5 246.5 29.5 132 94c-97.6 55-83 207.5-41.5 269.5 0 0 12.5 20.5 45.5 42.5l6-4.5z" transform="translate(-39.54 -11.68)"/><path class="cls-5" d="M187 178.5s-1 6.5 20.5 26" transform="translate(-39.54 -11.68)" id="Layer_6" data-name="Layer 6"/><path class="cls-5" d="M185 204.5s2.8-10 22.5-23.5" transform="translate(-39.54 -11.68)" id="Layer_7" data-name="Layer 7"/></g><path class="cls-5" d="M477.5 55.7c-62.4-50.8-147-50.3-189 1.3A100.55 100.55 0 0 0 276 76.7a95.5 95.5 0 0 1 19.8 9.6c9.8 6.1 22.2 16.1 30.1 24.8 1.8 2 9.1 10.3 11.2 13.9 2.4 4 5.5 8.5 7.3 11.9a198.69 198.69 0 0 1 9.3 21.1c2.9 8.1 7.6 28.3 7.8 36.6.8 10 .9 10 .9 13 0 5-.1 33.6-.5 39.5.3.6-1.8 17.3-1.8 17.3 56.2 27 119.8 19.2 154.4-23.3 42-51.6 25.4-134.6-37-185.4z" transform="translate(-39.54 -11.68)" id="helmet"/><path class="cls-3" d="M335.36 75.52l-1.5-10.41 8.1-8.3 8.5-2.79 6.2 2.5 6.9 10-6.9 11.2-14.6 2.59 33.3 25.3-2.2 3.61-43.9-33.61" id="Layer_11" data-name="Layer 11"/><path class="cls-6" d="M331.86 209.91l13 12.71 17.9 9.79 16.7 1.31 18.9-5.31 16.2-9.4 14.2-16.1 6.9-19.79-6.6-18.5-11.3-16.71" id="Layer_10" data-name="Layer 10"/><path class="cls-6" d="M344.36 217.62l-8-3.31-4.5-5.69 6-17.81 22.3-30.19 25.3-10.61 26.9-3.39 7.3 2.69 9.8 19.7-13.2 30.5-42.8 6.8-12.7 14.5" id="Layer_24" data-name="Layer 24"/><path class="cls-5" d="M362.8 209.9s19.8 31.2 42.6 34.9c30.2 4.8 67.1-19.2 68.6-48.1 2.1-38-83.1-98.4-92-104.5 0 0 31-2.8 16-22-8.6-11-21.6 1.7-24.1 5.7s.3 11 .3 11-23.2-7.9-31.7 7.4c0 0 7.5-18.9-9.4-26.2-5-2.1-15.1 1.7-18.2 8.4 0 0-3.4 11.2 1.6 16.3s7 5.2 7 5.2a13.26 13.26 0 0 0-8.7 3.5" transform="translate(-39.54 -11.68)" id="head"/><path class="cls-1" d="M93.3 137.2l-9 12-4.5-3.4-10.3-9.8-14.8-22s-7.3-16.8-8.9-24.4-3.7-28.3-3.7-28.3l-.5-9 7.2 11.3-.5 2.8s1.8 13.7 2.8 17 11.5 24.3 11.7 25 10.8 15.5 10.8 15.5z" transform="translate(-39.54 -11.68)" id="Layer_19" data-name="Layer 19"/><path class="cls-7" d="M48.8 63.5L63.4 54l9.2-8.2s5.8-9.2 5.9-9.6 2.3-8.2 2.3-8.2L79 27s-8.3 2-8.3 1.1a20.76 20.76 0 0 1 1.3-4L75.6 14h-2L66 18l-1.2-2.6-2.1-.2-2.2 1.8-5.5 8-11 19.8-2.3 10.4-.1 3.8 5.5 5.5" transform="translate(-39.54 -11.68)" id="Layer_20" data-name="Layer 20"/><path class="cls-5" d="M204.3 136.3S163.5 190.9 98.6 158C39.5 128 42.5 61.5 42 60.7 37.2 52.2 52 30 52 30s7-13 10.3-14.7S66 18 66 18a94.67 94.67 0 0 0 8.7-4.6c3.7-2.3-4.4 14.6-4.4 14.6a12.48 12.48 0 0 0 8.7-1c4.7-2.3-.3 10.7-4.3 16.3S56.3 59.7 53.7 61a27.66 27.66 0 0 0-5.3 3.8s1.9 16.7 5 23.5c12.7 27.7 19.4 49.2 81.9 63.4 20.7 4.7 36-11.8 41.4-20.1" transform="translate(-39.54 -11.68)" id="tail"/><g id="details"><path class="cls-8" d="M457.3 159.6c-1.4-2.1-46.4-7.3-70.3 25.7-12 16.6-15.6 36.4-15.6 36.4" transform="translate(-39.54 -11.68)"/><path class="cls-9" d="M453.6 192c-.2 1.1-2.1 5.6-4.1 5.5-1.2 0-1.3-5.5-.5-7.7.5-1.4 2.8-4.7 3.6-4.6 1.3.1 1.9 3.1 1 6.8zm-34.7 6.4c2 2.5 2.8 6 2.3 6.7s-2.9-.1-5.2-2.3c-.8-.8-4-4.1-2.5-6 .6-.9 3.7-.6 5.4 1.6z" transform="translate(-39.54 -11.68)"/><path class="cls-10" d="M368.6 86.2a20.58 20.58 0 0 0 .8 7.9c2.5 9 11.7 21.9 11.7 21.9 18.9 20.5 40 7.3 40 7.3" transform="translate(-39.54 -11.68)"/><path class="cls-5" d="M349.26 93.31v7.8l9-1.5m-38.3 10l9.9 2.7-5 7.3" id="Layer_22" data-name="Layer 22"/><path class="cls-5" d="M261.6 72.1s-4.6 16.9.2 31.3c1.4 4.1 9.5 19.4 21.4 29.2 13.4 11 9.8-.8 13.8 11.5s5.2 16.2 6 26.8 3.8 19 10.2 28.2 23.8 18.2 28 21.5 13.2 5 14.8 5.5 6.8-12.8 6-8m-99.7 213.4a22.73 22.73 0 0 0 14.7 14.1l2.5.8m-160.8-53.2c12.9-3.6 17.4-9.5 17.4-9.5" transform="translate(-39.54 -11.68)"/></g></svg>