<svg id="Layer_1" data-name="Layer 1" xmlns="http://www.w3.org/2000/svg" viewBox="0 0 1362.6 811.6"><defs><style>.cls-1{opacity:.66}.cls-2{fill:#fff}</style></defs><title>star-field</title><g class="cls-1" id="Layer_1-2" data-name="Layer 1"><circle class="cls-2" cx="731.9" cy="692.7" r="2.2"/><circle class="cls-2" cx="626.8" cy="512.2" r="2.2"/><circle class="cls-2" cx="577" cy="588.4" r="2.2"/><circle class="cls-2" cx="944.3" cy="623" r="2.2"/><circle class="cls-2" cx="634.7" cy="553.8" r="2.2"/><circle class="cls-2" cx="840.3" cy="506.8" r="2.2"/><circle class="cls-2" cx="714.2" cy="473.5" r="2.2"/><circle class="cls-2" cx="1055.8" cy="555" r="2.2"/><circle class="cls-2" cx="927.4" cy="226.7" r="2.2"/><circle class="cls-2" cx="770.2" cy="355.3" r="2.2"/><circle class="cls-2" cx="1107.7" cy="259" r="2.2"/><circle class="cls-2" cx="326.1" cy="600.6" r="2.2"/><circle class="cls-2" cx="628.8" cy="303.5" r="2.2"/><circle class="cls-2" cx="454.8" cy="458" r="2.2"/><circle class="cls-2" cx="519.2" cy="270.9" r="2.2"/><circle class="cls-2" cx="401.6" cy="512.4" r="2.2"/><circle class="cls-2" cx="627.1" cy="286" r="2.2"/><circle class="cls-2" cx="176.6" cy="336.9" r="2.2"/><circle class="cls-2" cx="460.1" cy="229.5" r="2.2"/><circle class="cls-2" cx="56.6" cy="395.5" r="2.2"/><circle class="cls-2" cx="368.6" cy="417" r="2.2"/><circle class="cls-2" cx="69.3" cy="302.5" r="2.2"/><circle class="cls-2" cx="310.1" cy="595.7" r="2.2"/><circle class="cls-2" cx="426.2" cy="381.8" r="2.2"/><circle class="cls-2" cx="144.4" cy="676" r="2.2"/><circle class="cls-2" cx="171.5" cy="537.6" r="2.2"/><circle class="cls-2" cx="260.5" cy="744.3" r="2.2"/><circle class="cls-2" cx="462.6" cy="591.9" r="2.2"/><circle class="cls-2" cx="268.1" cy="759.1" r="2.2"/><circle class="cls-2" cx="654.3" cy="623.7" r="2.2"/><circle class="cls-2" cx="294.1" cy="737.5" r="2.2"/><circle class="cls-2" cx="594.1" cy="668.1" r="2.2"/><circle class="cls-2" cx="308.8" cy="707.7" r="2.2"/><circle class="cls-2" cx="485.4" cy="683.1" r="2.2"/><circle class="cls-2" cx="366" cy="696.5" r="2.2"/><circle class="cls-2" cx="415.2" cy="727.3" r="2.2"/><circle class="cls-2" cx="504.4" cy="658.2" r="2.2"/><circle class="cls-2" cx="394.4" cy="656.8" r="2.2"/><circle class="cls-2" cx="385.3" cy="656.8" r="2.2"/><circle class="cls-2" cx="431.8" cy="619.6" r="2.2"/><circle class="cls-2" cx="338.1" cy="649.3" r="2.2"/><circle class="cls-2" cx="265" cy="578.2" r="2.2"/><circle class="cls-2" cx="155.1" cy="616.9" r="2.2"/><circle class="cls-2" cx="110.7" cy="583.4" r="2.2"/><circle class="cls-2" cx="106.8" cy="727.6" r="2.2"/><circle class="cls-2" cx="66.5" cy="699.5" r="2.2"/><circle class="cls-2" cx="53.6" cy="761.9" r="2.2"/><circle class="cls-2" cx="301.1" cy="702.1" r="2.2"/><circle class="cls-2" cx="636.8" cy="783.5" r="2.2"/><circle class="cls-2" cx="1144.4" cy="624.3" r="2.2"/><circle class="cls-2" cx="800.4" cy="798.3" r="2.2"/><circle class="cls-2" cx="1326.5" cy="646.8" r="2.2"/><circle class="cls-2" cx="1064.6" cy="736.3" r="2.2"/><circle class="cls-2" cx="1260.3" cy="704" r="2.2"/><circle class="cls-2" cx="1360.4" cy="628.1" r="2.2"/><circle class="cls-2" cx="1172.6" cy="725.6" r="2.2"/><circle class="cls-2" cx="1249" cy="775.3" r="2.2"/><circle class="cls-2" cx="1276.9" cy="793.8" r="2.2"/><circle class="cls-2" cx="923.5" cy="784.6" r="2.2"/><circle class="cls-2" cx="857.6" cy="763.3" r="2.2"/><circle class="cls-2" cx="896.2" cy="759.7" r="2.2"/><circle class="cls-2" cx="971.6" cy="724.4" r="2.2"/><circle class="cls-2" cx="1129.6" cy="417.9" r="2.2"/><circle class="cls-2" cx="991.5" cy="368" r="2.2"/><circle class="cls-2" cx="1006.4" cy="326.4" r="2.2"/><circle class="cls-2" cx="1128.2" cy="290.3" r="2.2"/><circle class="cls-2" cx="1155.5" cy="247.3" r="2.2"/><circle class="cls-2" cx="1195" cy="215.8" r="2.2"/><circle class="cls-2" cx="1176.2" cy="170" r="2.2"/><circle class="cls-2" cx="1115" cy="125.8" r="2.2"/><circle class="cls-2" cx="1349.3" cy="157.3" r="2.2"/><circle class="cls-2" cx="1269.5" cy="117.4" r="2.2"/><circle class="cls-2" cx="657" cy="84.5" r="2.2"/><circle class="cls-2" cx="466.3" cy="41" r="2.2"/><circle class="cls-2" cx="440.1" cy="6.8" r="2.2"/><circle class="cls-2" cx="527" cy="26" r="2.2"/><circle class="cls-2" cx="568.5" cy="8.9" r="2.2"/><circle class="cls-2" cx="993.2" cy="42.9" r="2.2"/><circle class="cls-2" cx="1005.4" cy="141" r="2.2"/><circle class="cls-2" cx="1168.5" cy="116.6" r="2.2"/><circle class="cls-2" cx="337.7" cy="2.2" r="2.2"/><circle class="cls-2" cx="200.7" cy="24.9" r="2.2"/><circle class="cls-2" cx="413.8" cy="144.7" r="2.2"/><circle class="cls-2" cx="166.4" cy="84" r="2.2"/><circle class="cls-2" cx="102.7" cy="166.4" r="2.2"/><circle class="cls-2" cx="175.8" cy="143.9" r="2.2"/><circle class="cls-2" cx="333.7" cy="148.3" r="2.2"/><circle class="cls-2" cx="130.2" cy="207.7" r="2.2"/><circle class="cls-2" cx="234.6" cy="205.4" r="2.2"/><circle class="cls-2" cx="248.1" cy="264.4" r="2.2"/><circle class="cls-2" cx="277.7" cy="303.5" r="2.2"/><circle class="cls-2" cx="278.3" cy="211.5" r="2.2"/><circle class="cls-2" cx="258.3" cy="390.8" r="2.2"/><circle class="cls-2" cx="332.4" cy="267" r="2.2"/><circle class="cls-2" cx="201.4" cy="373.7" r="2.2"/><circle class="cls-2" cx="299.3" cy="301.5" r="2.2"/><circle class="cls-2" cx="223.1" cy="425.7" r="2.2"/><circle class="cls-2" cx="165.9" cy="419.4" r="2.2"/><circle class="cls-2" cx="179.6" cy="493.8" r="2.2"/><circle class="cls-2" cx="91.9" cy="472" r="2.2"/><circle class="cls-2" cx="201" cy="504" r="2.2"/><circle class="cls-2" cx="226.9" cy="477.4" r="2.2"/><circle class="cls-2" cx="336.5" cy="346.8" r="2.2"/><circle class="cls-2" cx="334.1" cy="412.2" r="2.2"/><circle class="cls-2" cx="528.7" cy="235" r="2.2"/><circle class="cls-2" cx="718.9" cy="154" r="2.2"/><circle class="cls-2" cx="531.7" cy="155.1" r="2.2"/><circle class="cls-2" cx="611.9" cy="242.4" r="2.2"/><circle class="cls-2" cx="527.6" cy="368.2" r="2.2"/><circle class="cls-2" cx="604.8" cy="365" r="2.2"/><circle class="cls-2" cx="529.5" cy="383.5" r="2.2"/><circle class="cls-2" cx="562.2" cy="371" r="2.2"/><circle class="cls-2" cx="596.9" cy="414.6" r="2.2"/><circle class="cls-2" cx="400.1" cy="350.7" r="2.2"/><circle class="cls-2" cx="730.3" cy="394.2" r="2.2"/><circle class="cls-2" cx="822.8" cy="356.9" r="2.2"/><circle class="cls-2" cx="731.9" cy="342.8" r="2.2"/><circle class="cls-2" cx="901.6" cy="361.4" r="2.2"/><circle class="cls-2" cx="776.2" cy="415.8" r="2.2"/><circle class="cls-2" cx="939.8" cy="375.3" r="2.2"/><circle class="cls-2" cx="913.7" cy="462.7" r="2.2"/><circle class="cls-2" cx="952" cy="429" r="2.2"/><circle class="cls-2" cx="959.5" cy="504.1" r="2.2"/><circle class="cls-2" cx="997.8" cy="455" r="2.2"/><circle class="cls-2" cx="1156" cy="491.5" r="2.2"/><circle class="cls-2" cx="1188.2" cy="477.5" r="2.2"/><circle class="cls-2" cx="1293.7" cy="437.5" r="2.2"/><circle class="cls-2" cx="1211.8" cy="466.2" r="2.2"/><circle class="cls-2" cx="1327.9" cy="426.6" r="2.2"/><circle class="cls-2" cx="1283.2" cy="539.7" r="2.2"/><circle class="cls-2" cx="1318.5" cy="498.4" r="2.2"/><circle class="cls-2" cx="296.4" cy="535" r="2.2"/><circle class="cls-2" cx="328.4" cy="465.8" r="2.2"/><circle class="cls-2" cx="290.2" cy="316.5" r="2.2"/><circle class="cls-2" cx="287.2" cy="170.2" r="2.2"/><circle class="cls-2" cx="328.7" cy="124.1" r="2.2"/><circle class="cls-2" cx="197.8" cy="101" r="2.2"/><circle class="cls-2" cx="287.3" cy="61.5" r="2.2"/><circle class="cls-2" cx="272.5" cy="57.8" r="2.2"/><circle class="cls-2" cx="79.9" cy="351.2" r="2.2"/><circle class="cls-2" cx="107.6" cy="480.6" r="2.2"/><circle class="cls-2" cx="57.4" cy="557.4" r="2.2"/><circle class="cls-2" cx="59.3" cy="603.2" r="2.2"/><circle class="cls-2" cx="130.4" cy="558" r="2.2"/><circle class="cls-2" cx="83.9" cy="578.1" r="2.2"/><circle class="cls-2" cx="303.5" cy="720.5" r="2.2"/><circle class="cls-2" cx="437.7" cy="742.5" r="2.2"/><circle class="cls-2" cx="503.8" cy="676" r="2.2"/><circle class="cls-2" cx="728.6" cy="725.8" r="2.2"/><circle class="cls-2" cx="859.8" cy="717.2" r="2.2"/><circle class="cls-2" cx="850.2" cy="694.6" r="2.2"/><circle class="cls-2" cx="996.1" cy="724.4" r="5.7"/><circle class="cls-2" cx="781.1" cy="559.3" r="5.7"/><circle class="cls-2" cx="735.7" cy="411.9" r="5.7"/><circle class="cls-2" cx="997.3" cy="261.8" r="5.7"/><circle class="cls-2" cx="407.8" cy="237.5" r="5.7"/><circle class="cls-2" cx="812.2" cy="621.4" r="5.7"/><circle class="cls-2" cx="1171.6" cy="524.4" r="5.7"/><circle class="cls-2" cx="1114.3" cy="430.2" r="5.7"/><circle class="cls-2" cx="407.4" cy="572.3" r="5.7"/><circle class="cls-2" cx="334.9" cy="629.7" r="5.7"/><circle class="cls-2" cx="141.7" cy="397.2" r="5.7"/><circle class="cls-2" cx="441.6" cy="119.2" r="5.7"/><circle class="cls-2" cx="692.5" cy="96.4" r="5.7"/><circle class="cls-2" cx="1009.2" cy="169.2" r="5.7"/><circle class="cls-2" cx="1317.4" cy="215.9" r="5.7"/><circle class="cls-2" cx="1321.8" cy="385.2" r="5.7"/><circle class="cls-2" cx="1329.5" cy="590" r="5.7"/><circle class="cls-2" cx="1342.4" cy="732.9" r="5.7"/><circle class="cls-2" cx="864.8" cy="768.5" r="5.7"/><circle class="cls-2" cx="518.9" cy="774.9" r="5.7"/><circle class="cls-2" cx="34.6" cy="805.9" r="5.7"/><circle class="cls-2" cx="17.1" cy="769.5" r="5.7"/><circle class="cls-2" cx="62.5" cy="689.5" r="5.7"/><circle class="cls-2" cx="31.3" cy="276.3" r="5.7"/><circle class="cls-2" cx="894" cy="98.8" r="5.7"/><circle class="cls-2" cx="5.7" cy="81.9" r="5.7"/><circle class="cls-2" cx="677.7" cy="55.9" r="5.7"/><circle class="cls-2" cx="597.9" cy="606.7" r="5.7"/><circle class="cls-2" cx="517.7" cy="521.4" r="5.7"/><circle class="cls-2" cx="71.5" cy="50.3" r="2.2"/><circle class="cls-2" cx="25.6" cy="113.5" r="2.2"/><path class="cls-2" d="M849.4 177.7a2.27 2.27 0 0 1-3.2-3.2c2.4-1.8 5 .8 3.2 3.2z" transform="translate(-30 -1.2)"/><circle class="cls-2" cx="827.2" cy="163.5" r="2.2"/><circle class="cls-2" cx="778.3" cy="224.5" r="2.2"/><circle class="cls-2" cx="838.1" cy="191.8" r="2.2"/><circle class="cls-2" cx="692.5" cy="232.9" r="2.2"/><circle class="cls-2" cx="747.1" cy="448.6" r="2.2"/><circle class="cls-2" cx="731.1" cy="443.7" r="2.2"/><circle class="cls-2" cx="686" cy="426.2" r="2.2"/><circle class="cls-2" cx="717.4" cy="383" r="2.2"/><circle class="cls-2" cx="917.5" cy="136.6" r="2.2"/><circle class="cls-2" cx="1011" cy="177.2" r="2.2"/><circle class="cls-2" cx="901.1" cy="215.9" r="2.2"/><circle class="cls-2" cx="856.7" cy="182.4" r="2.2"/><circle class="cls-2" cx="925.6" cy="92.8" r="2.2"/><circle class="cls-2" cx="837.9" cy="71" r="2.2"/><circle class="cls-2" cx="947" cy="103" r="2.2"/><circle class="cls-2" cx="972.9" cy="76.4" r="2.2"/><circle class="cls-2" cx="853.6" cy="79.6" r="2.2"/><circle class="cls-2" cx="803.4" cy="156.4" r="2.2"/><circle class="cls-2" cx="805.3" cy="202.2" r="2.2"/><circle class="cls-2" cx="876.4" cy="157" r="2.2"/><circle class="cls-2" cx="829.9" cy="177.1" r="2.2"/></g></svg>