<svg id="Layer_1" data-name="Layer 1" xmlns="http://www.w3.org/2000/svg" viewBox="0 0 1362.45 795.77"><defs><style>.cls-1{opacity:.66}.cls-2{fill:#fff}</style></defs><title>star-field-2</title><g class="cls-1"><circle class="cls-2" cx="735.77" cy="288.21" r="2.17"/><circle class="cls-2" cx="418.22" cy="177.49" r="2.17"/><circle class="cls-2" cx="727.87" cy="246.65" r="2.17"/><circle class="cls-2" cx="522.26" cy="293.6" r="2.17"/><circle class="cls-2" cx="648.33" cy="326.96" r="2.17"/><circle class="cls-2" cx="306.73" cy="245.44" r="2.17"/><circle class="cls-2" cx="435.17" cy="573.76" r="2.17"/><circle class="cls-2" cx="592.31" cy="445.17" r="2.17"/><circle class="cls-2" cx="254.87" cy="541.48" r="2.17"/><circle class="cls-2" cx="1036.43" cy="199.84" r="2.17"/><circle class="cls-2" cx="733.69" cy="496.98" r="2.17"/><circle class="cls-2" cx="907.76" cy="342.44" r="2.17"/><circle class="cls-2" cx="843.33" cy="529.56" r="2.17"/><circle class="cls-2" cx="960.94" cy="288.02" r="2.17"/><circle class="cls-2" cx="735.39" cy="514.39" r="2.17"/><circle class="cls-2" cx="1185.89" cy="463.49" r="2.17"/><circle class="cls-2" cx="902.39" cy="570.96" r="2.17"/><circle class="cls-2" cx="1305.89" cy="404.93" r="2.17"/><circle class="cls-2" cx="993.93" cy="383.44" r="2.17"/><circle class="cls-2" cx="1293.25" cy="497.98" r="2.17"/><circle class="cls-2" cx="1052.42" cy="204.73" r="2.17"/><circle class="cls-2" cx="936.34" cy="418.6" r="2.17"/><circle class="cls-2" cx="1218.16" cy="124.39" r="2.17"/><circle class="cls-2" cx="1191.08" cy="262.87" r="2.17"/><circle class="cls-2" cx="1102.08" cy="56.16" r="2.17"/><circle class="cls-2" cx="899.89" cy="208.53" r="2.17"/><circle class="cls-2" cx="1094.41" cy="41.35" r="2.17"/><circle class="cls-2" cx="708.22" cy="176.77" r="2.17"/><circle class="cls-2" cx="1068.41" cy="62.99" r="2.17"/><circle class="cls-2" cx="768.47" cy="132.31" r="2.17"/><circle class="cls-2" cx="1053.72" cy="92.77" r="2.17"/><circle class="cls-2" cx="877.18" cy="117.32" r="2.17"/><circle class="cls-2" cx="996.58" cy="103.95" r="2.17"/><circle class="cls-2" cx="947.32" cy="73.09" r="2.17"/><circle class="cls-2" cx="858.1" cy="142.23" r="2.17"/><circle class="cls-2" cx="968.13" cy="143.63" r="2.17"/><circle class="cls-2" cx="977.26" cy="143.68" r="2.17"/><circle class="cls-2" cx="930.74" cy="180.88" r="2.17"/><circle class="cls-2" cx="1024.42" cy="151.15" r="2.17"/><circle class="cls-2" cx="1097.52" cy="222.22" r="2.17"/><circle class="cls-2" cx="1207.42" cy="183.55" r="2.17"/><circle class="cls-2" cx="1251.81" cy="217.04" r="2.17"/><circle class="cls-2" cx="1255.7" cy="72.86" r="2.17"/><circle class="cls-2" cx="1295.99" cy="100.96" r="2.17"/><circle class="cls-2" cx="1308.9" cy="38.5" r="2.17"/><circle class="cls-2" cx="1061.39" cy="98.37" r="2.17"/><circle class="cls-2" cx="725.72" cy="16.98" r="2.17"/><circle class="cls-2" cx="218.11" cy="176.11" r="2.17"/><circle class="cls-2" cx="562.18" cy="2.17" r="2.17"/><circle class="cls-2" cx="36.08" cy="153.64" r="2.17"/><circle class="cls-2" cx="297.95" cy="64.09" r="2.17"/><circle class="cls-2" cx="102.27" cy="96.44" r="2.17"/><circle class="cls-2" cx="2.17" cy="172.29" r="2.17"/><circle class="cls-2" cx="189.89" cy="74.8" r="2.17"/><circle class="cls-2" cx="113.56" cy="25.14" r="2.17"/><circle class="cls-2" cx="85.67" cy="6.59" r="2.17"/><circle class="cls-2" cx="438.99" cy="15.85" r="2.17"/><circle class="cls-2" cx="504.96" cy="37.11" r="2.17"/><circle class="cls-2" cx="466.36" cy="40.76" r="2.17"/><circle class="cls-2" cx="390.92" cy="76.06" r="2.17"/><circle class="cls-2" cx="232.97" cy="382.49" r="2.17"/><circle class="cls-2" cx="371.01" cy="432.43" r="2.17"/><circle class="cls-2" cx="356.17" cy="474.01" r="2.17"/><circle class="cls-2" cx="234.32" cy="510.1" r="2.17"/><circle class="cls-2" cx="207.08" cy="553.1" r="2.17"/><circle class="cls-2" cx="167.52" cy="584.66" r="2.17"/><circle class="cls-2" cx="186.35" cy="630.46" r="2.17"/><circle class="cls-2" cx="247.49" cy="674.6" r="2.17"/><circle class="cls-2" cx="13.2" cy="643.16" r="2.17"/><circle class="cls-2" cx="93.03" cy="683" r="2.17"/><circle class="cls-2" cx="705.51" cy="715.95" r="2.17"/><circle class="cls-2" cx="896.25" cy="759.48" r="2.17"/><circle class="cls-2" cx="922.42" cy="793.6" r="2.17"/><circle class="cls-2" cx="835.54" cy="774.41" r="2.17"/><circle class="cls-2" cx="793.98" cy="791.51" r="2.17"/><circle class="cls-2" cx="369.3" cy="757.58" r="2.17"/><circle class="cls-2" cx="357.16" cy="659.48" r="2.17"/><circle class="cls-2" cx="194.02" cy="683.85" r="2.17"/><circle class="cls-2" cx="1161.82" cy="775.55" r="2.17"/><circle class="cls-2" cx="948.75" cy="655.71" r="2.17"/><circle class="cls-2" cx="1196.1" cy="716.4" r="2.17"/><circle class="cls-2" cx="1259.79" cy="634.07" r="2.17"/><circle class="cls-2" cx="1186.69" cy="656.58" r="2.17"/><circle class="cls-2" cx="1028.84" cy="652.09" r="2.17"/><circle class="cls-2" cx="1232.32" cy="592.72" r="2.17"/><circle class="cls-2" cx="1127.95" cy="595.07" r="2.17"/><circle class="cls-2" cx="1084.85" cy="496.94" r="2.17"/><circle class="cls-2" cx="1084.24" cy="588.9" r="2.17"/><circle class="cls-2" cx="1104.2" cy="409.66" r="2.17"/><circle class="cls-2" cx="1030.16" cy="533.46" r="2.17"/><circle class="cls-2" cx="1161.18" cy="426.73" r="2.17"/><circle class="cls-2" cx="1063.23" cy="498.92" r="2.17"/><circle class="cls-2" cx="1139.41" cy="374.7" r="2.17"/><circle class="cls-2" cx="1196.59" cy="381.08" r="2.17"/><circle class="cls-2" cx="1182.97" cy="306.67" r="2.17"/><circle class="cls-2" cx="1270.62" cy="328.42" r="2.17"/><circle class="cls-2" cx="1161.54" cy="296.42" r="2.17"/><circle class="cls-2" cx="1135.64" cy="323.01" r="2.17"/><circle class="cls-2" cx="1026.08" cy="453.66" r="2.17"/><circle class="cls-2" cx="1028.4" cy="388.22" r="2.17"/><circle class="cls-2" cx="833.88" cy="565.39" r="2.17"/><circle class="cls-2" cx="643.63" cy="646.42" r="2.17"/><circle class="cls-2" cx="830.83" cy="645.29" r="2.17"/><circle class="cls-2" cx="750.62" cy="558.03" r="2.17"/><circle class="cls-2" cx="834.94" cy="432.21" r="2.17"/><circle class="cls-2" cx="757.73" cy="435.46" r="2.17"/><circle class="cls-2" cx="833.04" cy="416.98" r="2.17"/><circle class="cls-2" cx="800.3" cy="429.4" r="2.17"/><circle class="cls-2" cx="765.63" cy="385.84" r="2.17"/><circle class="cls-2" cx="962.39" cy="449.77" r="2.17"/><circle class="cls-2" cx="632.24" cy="406.22" r="2.17"/><circle class="cls-2" cx="539.69" cy="443.52" r="2.17"/><circle class="cls-2" cx="630.63" cy="457.59" r="2.17"/><circle class="cls-2" cx="460.9" cy="439.08" r="2.17"/><circle class="cls-2" cx="586.36" cy="384.64" r="2.17"/><circle class="cls-2" cx="422.73" cy="425.14" r="2.17"/><circle class="cls-2" cx="448.82" cy="337.69" r="2.17"/><circle class="cls-2" cx="410.58" cy="371.47" r="2.17"/><circle class="cls-2" cx="403.05" cy="296.37" r="2.17"/><circle class="cls-2" cx="364.73" cy="345.45" r="2.17"/><circle class="cls-2" cx="206.51" cy="308.97" r="2.17"/><circle class="cls-2" cx="174.37" cy="322.95" r="2.17"/><circle class="cls-2" cx="68.83" cy="362.98" r="2.17"/><circle class="cls-2" cx="150.73" cy="334.25" r="2.17"/><circle class="cls-2" cx="34.67" cy="373.81" r="2.17"/><circle class="cls-2" cx="79.34" cy="260.78" r="2.17"/><circle class="cls-2" cx="44.03" cy="302.02" r="2.17"/><circle class="cls-2" cx="1066.14" cy="265.46" r="2.17"/><circle class="cls-2" cx="1034.13" cy="334.67" r="2.17"/><circle class="cls-2" cx="1072.31" cy="483.91" r="2.17"/><circle class="cls-2" cx="1075.29" cy="630.21" r="2.17"/><circle class="cls-2" cx="1033.82" cy="676.32" r="2.17"/><circle class="cls-2" cx="1164.69" cy="699.44" r="2.17"/><circle class="cls-2" cx="1075.26" cy="738.94" r="2.17"/><circle class="cls-2" cx="1090.05" cy="742.59" r="2.17"/><circle class="cls-2" cx="1282.66" cy="449.23" r="2.17"/><circle class="cls-2" cx="1254.97" cy="319.79" r="2.17"/><circle class="cls-2" cx="1305.14" cy="243.05" r="2.17"/><circle class="cls-2" cx="1303.24" cy="197.24" r="2.17"/><circle class="cls-2" cx="1232.11" cy="242.4" r="2.17"/><circle class="cls-2" cx="1278.62" cy="222.37" r="2.17"/><circle class="cls-2" cx="1059.02" cy="79.98" r="2.17"/><circle class="cls-2" cx="924.85" cy="57.96" r="2.17"/><circle class="cls-2" cx="858.78" cy="124.42" r="2.17"/><circle class="cls-2" cx="633.96" cy="74.66" r="2.17"/><circle class="cls-2" cx="502.7" cy="83.22" r="2.17"/><circle class="cls-2" cx="512.29" cy="105.82" r="2.17"/><circle class="cls-2" cx="366.48" cy="76.08" r="5.67"/><circle class="cls-2" cx="365.18" cy="538.66" r="5.67"/><circle class="cls-2" cx="954.69" cy="562.98" r="5.67"/><circle class="cls-2" cx="190.97" cy="276.01" r="5.67"/><circle class="cls-2" cx="1220.81" cy="403.2" r="5.67"/><circle class="cls-2" cx="920.96" cy="681.25" r="5.67"/><circle class="cls-2" cx="353.31" cy="631.23" r="5.67"/><circle class="cls-2" cx="45.12" cy="584.56" r="5.67"/><circle class="cls-2" cx="40.72" cy="415.28" r="5.67"/><circle class="cls-2" cx="20.16" cy="67.57" r="5.67"/><circle class="cls-2" cx="843.66" cy="25.53" r="5.67"/><circle class="cls-2" cx="1345.44" cy="30.97" r="5.67"/><circle class="cls-2" cx="1331.21" cy="524.09" r="5.67"/><circle class="cls-2" cx="1356.78" cy="718.57" r="5.67"/><circle class="cls-2" cx="684.82" cy="744.52" r="5.67"/><circle class="cls-2" cx="844.84" cy="279.01" r="5.67"/><circle class="cls-2" cx="1336.88" cy="686.92" r="2.17"/><path class="cls-2" d="M543.12 624a2.25 2.25 0 1 1 0 3.07 2.25 2.25 0 0 1 0-3.07z"/><circle class="cls-2" cx="535.35" cy="636.9" r="2.17"/><circle class="cls-2" cx="584.19" cy="575.93" r="2.17"/><circle class="cls-2" cx="524.43" cy="608.64" r="2.17"/><circle class="cls-2" cx="670.01" cy="567.56" r="2.17"/><circle class="cls-2" cx="615.43" cy="351.84" r="2.17"/><circle class="cls-2" cx="631.42" cy="356.73" r="2.17"/><circle class="cls-2" cx="676.52" cy="374.22" r="2.17"/><circle class="cls-2" cx="645.14" cy="417.46" r="2.17"/><circle class="cls-2" cx="315.08" cy="695.87" r="2.17"/><circle class="cls-2" cx="221.52" cy="655.22" r="2.17"/><circle class="cls-2" cx="331.42" cy="616.55" r="2.17"/><circle class="cls-2" cx="375.81" cy="650.04" r="2.17"/><circle class="cls-2" cx="306.97" cy="739.67" r="2.17"/><circle class="cls-2" cx="394.62" cy="761.42" r="2.17"/><circle class="cls-2" cx="285.54" cy="729.42" r="2.17"/><circle class="cls-2" cx="259.64" cy="756.01" r="2.17"/><circle class="cls-2" cx="378.97" cy="752.79" r="2.17"/><circle class="cls-2" cx="429.14" cy="676.05" r="2.17"/><circle class="cls-2" cx="427.24" cy="630.24" r="2.17"/><circle class="cls-2" cx="402.62" cy="655.37" r="2.17"/></g></svg>